<mxfile host="app.diagrams.net" modified="2023-12-21T00:58:29.301Z" agent="Mozilla/5.0 (Windows NT 10.0; Win64; x64) AppleWebKit/537.36 (KHTML, like Gecko) Chrome/119.0.0.0 Safari/537.36" etag="GOpTRN56omCiwCRZLmCx" version="22.1.11" type="github">
  <diagram name="Page-1" id="hIN-w2iBPotmwxZHRvEN">
    <mxGraphModel dx="3200" dy="2036" grid="1" gridSize="10" guides="1" tooltips="1" connect="1" arrows="1" fold="1" page="0" pageScale="1" pageWidth="850" pageHeight="1100" math="0" shadow="0">
      <root>
        <mxCell id="0" />
        <mxCell id="1" parent="0" />
        <mxCell id="1Z1Jqu86KwGXHja1XvKO-131" value="" style="rounded=1;whiteSpace=wrap;html=1;fontSize=16;arcSize=6;fillColor=#ffcccc;strokeColor=none;opacity=20;" vertex="1" parent="1">
          <mxGeometry x="220" y="350" width="680" height="250" as="geometry" />
        </mxCell>
        <mxCell id="1Z1Jqu86KwGXHja1XvKO-107" value="" style="rounded=1;whiteSpace=wrap;html=1;fontSize=16;arcSize=6;fillColor=#ffff88;strokeColor=none;opacity=20;" vertex="1" parent="1">
          <mxGeometry x="-54" y="111" width="714" height="239" as="geometry" />
        </mxCell>
        <mxCell id="1Z1Jqu86KwGXHja1XvKO-93" value="" style="rounded=1;whiteSpace=wrap;html=1;fontSize=16;arcSize=6;fillColor=#cdeb8b;strokeColor=none;opacity=20;" vertex="1" parent="1">
          <mxGeometry x="-54" y="-159" width="654" height="269" as="geometry" />
        </mxCell>
        <mxCell id="1Z1Jqu86KwGXHja1XvKO-1" value="" style="endArrow=classic;html=1;rounded=0;fontSize=16;startSize=8;endSize=8;curved=1;fontFamily=Nunito Sans;fontSource=https%3A%2F%2Ffonts.googleapis.com%2Fcss%3Ffamily%3DNunito%2BSans;fontStyle=1" edge="1" parent="1">
          <mxGeometry width="50" height="50" relative="1" as="geometry">
            <mxPoint x="-60" y="690" as="sourcePoint" />
            <mxPoint x="970" y="690" as="targetPoint" />
          </mxGeometry>
        </mxCell>
        <mxCell id="1Z1Jqu86KwGXHja1XvKO-2" value="Jan." style="text;html=1;align=center;verticalAlign=middle;resizable=0;points=[];autosize=1;strokeColor=none;fillColor=none;fontSize=16;fontFamily=Nunito Sans;fontSource=https%3A%2F%2Ffonts.googleapis.com%2Fcss%3Ffamily%3DNunito%2BSans;fontStyle=1" vertex="1" parent="1">
          <mxGeometry x="-80" y="700" width="50" height="30" as="geometry" />
        </mxCell>
        <mxCell id="1Z1Jqu86KwGXHja1XvKO-3" value="Feb" style="text;html=1;align=center;verticalAlign=middle;resizable=0;points=[];autosize=1;strokeColor=none;fillColor=none;fontSize=16;fontFamily=Nunito Sans;fontSource=https%3A%2F%2Ffonts.googleapis.com%2Fcss%3Ffamily%3DNunito%2BSans;fontStyle=1" vertex="1" parent="1">
          <mxGeometry y="700" width="50" height="30" as="geometry" />
        </mxCell>
        <mxCell id="1Z1Jqu86KwGXHja1XvKO-4" value="Mar." style="text;html=1;align=center;verticalAlign=middle;resizable=0;points=[];autosize=1;strokeColor=none;fillColor=none;fontSize=16;fontFamily=Nunito Sans;fontSource=https%3A%2F%2Ffonts.googleapis.com%2Fcss%3Ffamily%3DNunito%2BSans;fontStyle=1" vertex="1" parent="1">
          <mxGeometry x="80" y="700" width="50" height="30" as="geometry" />
        </mxCell>
        <mxCell id="1Z1Jqu86KwGXHja1XvKO-5" value="Apr." style="text;html=1;align=center;verticalAlign=middle;resizable=0;points=[];autosize=1;strokeColor=none;fillColor=none;fontSize=16;fontFamily=Nunito Sans;fontSource=https%3A%2F%2Ffonts.googleapis.com%2Fcss%3Ffamily%3DNunito%2BSans;fontStyle=1" vertex="1" parent="1">
          <mxGeometry x="150" y="700" width="50" height="30" as="geometry" />
        </mxCell>
        <mxCell id="1Z1Jqu86KwGXHja1XvKO-6" value="May" style="text;html=1;align=center;verticalAlign=middle;resizable=0;points=[];autosize=1;strokeColor=none;fillColor=none;fontSize=16;fontFamily=Nunito Sans;fontSource=https%3A%2F%2Ffonts.googleapis.com%2Fcss%3Ffamily%3DNunito%2BSans;fontStyle=1" vertex="1" parent="1">
          <mxGeometry x="240" y="700" width="50" height="30" as="geometry" />
        </mxCell>
        <mxCell id="1Z1Jqu86KwGXHja1XvKO-7" value="Jun." style="text;html=1;align=center;verticalAlign=middle;resizable=0;points=[];autosize=1;strokeColor=none;fillColor=none;fontSize=16;fontFamily=Nunito Sans;fontSource=https%3A%2F%2Ffonts.googleapis.com%2Fcss%3Ffamily%3DNunito%2BSans;fontStyle=1" vertex="1" parent="1">
          <mxGeometry x="320" y="700" width="50" height="30" as="geometry" />
        </mxCell>
        <mxCell id="1Z1Jqu86KwGXHja1XvKO-8" value="Jul." style="text;html=1;align=center;verticalAlign=middle;resizable=0;points=[];autosize=1;strokeColor=none;fillColor=none;fontSize=16;fontFamily=Nunito Sans;fontSource=https%3A%2F%2Ffonts.googleapis.com%2Fcss%3Ffamily%3DNunito%2BSans;fontStyle=1" vertex="1" parent="1">
          <mxGeometry x="400" y="700" width="50" height="30" as="geometry" />
        </mxCell>
        <mxCell id="1Z1Jqu86KwGXHja1XvKO-9" value="Aug." style="text;html=1;align=center;verticalAlign=middle;resizable=0;points=[];autosize=1;strokeColor=none;fillColor=none;fontSize=16;fontFamily=Nunito Sans;fontSource=https%3A%2F%2Ffonts.googleapis.com%2Fcss%3Ffamily%3DNunito%2BSans;fontStyle=1" vertex="1" parent="1">
          <mxGeometry x="465" y="700" width="60" height="30" as="geometry" />
        </mxCell>
        <mxCell id="1Z1Jqu86KwGXHja1XvKO-10" value="Sep." style="text;html=1;align=center;verticalAlign=middle;resizable=0;points=[];autosize=1;strokeColor=none;fillColor=none;fontSize=16;fontFamily=Nunito Sans;fontSource=https%3A%2F%2Ffonts.googleapis.com%2Fcss%3Ffamily%3DNunito%2BSans;fontStyle=1" vertex="1" parent="1">
          <mxGeometry x="555" y="700" width="50" height="30" as="geometry" />
        </mxCell>
        <mxCell id="1Z1Jqu86KwGXHja1XvKO-11" value="Oct." style="text;html=1;align=center;verticalAlign=middle;resizable=0;points=[];autosize=1;strokeColor=none;fillColor=none;fontSize=16;fontFamily=Nunito Sans;fontSource=https%3A%2F%2Ffonts.googleapis.com%2Fcss%3Ffamily%3DNunito%2BSans;fontStyle=1" vertex="1" parent="1">
          <mxGeometry x="640" y="700" width="50" height="30" as="geometry" />
        </mxCell>
        <mxCell id="1Z1Jqu86KwGXHja1XvKO-12" value="Nov." style="text;html=1;align=center;verticalAlign=middle;resizable=0;points=[];autosize=1;strokeColor=none;fillColor=none;fontSize=16;fontFamily=Nunito Sans;fontSource=https%3A%2F%2Ffonts.googleapis.com%2Fcss%3Ffamily%3DNunito%2BSans;fontStyle=1" vertex="1" parent="1">
          <mxGeometry x="715" y="700" width="60" height="30" as="geometry" />
        </mxCell>
        <mxCell id="1Z1Jqu86KwGXHja1XvKO-13" value="Dec." style="text;html=1;align=center;verticalAlign=middle;resizable=0;points=[];autosize=1;strokeColor=none;fillColor=none;fontSize=16;fontFamily=Nunito Sans;fontSource=https%3A%2F%2Ffonts.googleapis.com%2Fcss%3Ffamily%3DNunito%2BSans;fontStyle=1" vertex="1" parent="1">
          <mxGeometry x="785" y="700" width="60" height="30" as="geometry" />
        </mxCell>
        <mxCell id="1Z1Jqu86KwGXHja1XvKO-14" value="Jan." style="text;html=1;align=center;verticalAlign=middle;resizable=0;points=[];autosize=1;strokeColor=none;fillColor=none;fontSize=16;fontFamily=Nunito Sans;fontSource=https%3A%2F%2Ffonts.googleapis.com%2Fcss%3Ffamily%3DNunito%2BSans;fontStyle=1" vertex="1" parent="1">
          <mxGeometry x="875" y="700" width="50" height="30" as="geometry" />
        </mxCell>
        <mxCell id="1Z1Jqu86KwGXHja1XvKO-16" value="&lt;font style=&quot;font-size: 17px;&quot;&gt;STAGE 1&lt;/font&gt;" style="rounded=1;whiteSpace=wrap;html=1;fontSize=23;fillColor=#FF6666;strokeColor=#000000;fontColor=#FFFFFF;fontStyle=1;arcSize=45;fontFamily=Nunito Sans;fontSource=https%3A%2F%2Ffonts.googleapis.com%2Fcss%3Ffamily%3DNunito%2BSans;strokeWidth=2;" vertex="1" parent="1">
          <mxGeometry x="840" y="-270" width="120" height="50" as="geometry" />
        </mxCell>
        <mxCell id="1Z1Jqu86KwGXHja1XvKO-18" value="MaCHUP" style="rounded=0;whiteSpace=wrap;html=1;fontSize=20;rotation=-90;fontFamily=Nunito Sans;fontSource=https%3A%2F%2Ffonts.googleapis.com%2Fcss%3Ffamily%3DNunito%2BSans;fontStyle=1;fillColor=#cdeb8b;strokeColor=#36393d;" vertex="1" parent="1">
          <mxGeometry x="-457.88" y="-67.13" width="270.75" height="85" as="geometry" />
        </mxCell>
        <mxCell id="1Z1Jqu86KwGXHja1XvKO-20" value="SemiSupCon" style="rounded=0;whiteSpace=wrap;html=1;fontSize=20;rotation=-90;fontFamily=Nunito Sans;fontSource=https%3A%2F%2Ffonts.googleapis.com%2Fcss%3Ffamily%3DNunito%2BSans;fontStyle=1;fillColor=#ffff88;strokeColor=#36393d;" vertex="1" parent="1">
          <mxGeometry x="-446.25" y="191.25" width="247.5" height="85" as="geometry" />
        </mxCell>
        <mxCell id="1Z1Jqu86KwGXHja1XvKO-22" value="Other Projects" style="rounded=0;whiteSpace=wrap;html=1;fontSize=16;rotation=-90;fontFamily=Nunito Sans;fontSource=https%3A%2F%2Ffonts.googleapis.com%2Fcss%3Ffamily%3DNunito%2BSans;fontStyle=1" vertex="1" parent="1">
          <mxGeometry x="-384.07" y="405" width="158.13" height="50" as="geometry" />
        </mxCell>
        <mxCell id="1Z1Jqu86KwGXHja1XvKO-23" value="Other Projects" style="rounded=0;whiteSpace=wrap;html=1;fontSize=20;rotation=-90;fontFamily=Nunito Sans;fontSource=https%3A%2F%2Ffonts.googleapis.com%2Fcss%3Ffamily%3DNunito%2BSans;fontStyle=1;fillColor=#ffcccc;strokeColor=#36393d;" vertex="1" parent="1">
          <mxGeometry x="-447.89" y="433.83" width="250.78" height="85" as="geometry" />
        </mxCell>
        <mxCell id="1Z1Jqu86KwGXHja1XvKO-27" value="Stage 1" style="rounded=0;whiteSpace=wrap;html=1;fontSize=20;rotation=-90;fontFamily=Nunito Sans;fontSource=https%3A%2F%2Ffonts.googleapis.com%2Fcss%3Ffamily%3DNunito%2BSans;fontStyle=1;fillColor=#cce5ff;strokeColor=#36393d;" vertex="1" parent="1">
          <mxGeometry x="-367.63" y="602.62" width="90.25" height="85.01" as="geometry" />
        </mxCell>
        <mxCell id="1Z1Jqu86KwGXHja1XvKO-29" value="Projects" style="text;html=1;align=left;verticalAlign=middle;resizable=0;points=[];autosize=1;strokeColor=none;fillColor=none;fontSize=16;fontFamily=Nunito Sans;fontSource=https%3A%2F%2Ffonts.googleapis.com%2Fcss%3Ffamily%3DNunito%2BSans;fontStyle=1" vertex="1" parent="1">
          <mxGeometry x="-362.5" y="-200" width="80" height="30" as="geometry" />
        </mxCell>
        <mxCell id="1Z1Jqu86KwGXHja1XvKO-30" value="Tasks" style="text;html=1;align=left;verticalAlign=middle;resizable=0;points=[];autosize=1;strokeColor=none;fillColor=none;fontSize=16;fontFamily=Nunito Sans;fontSource=https%3A%2F%2Ffonts.googleapis.com%2Fcss%3Ffamily%3DNunito%2BSans;fontStyle=1" vertex="1" parent="1">
          <mxGeometry x="-270" y="-200" width="60" height="30" as="geometry" />
        </mxCell>
        <mxCell id="1Z1Jqu86KwGXHja1XvKO-17" value="" style="rounded=0;whiteSpace=wrap;html=1;fontSize=14;fontFamily=Nunito Sans;fontSource=https%3A%2F%2Ffonts.googleapis.com%2Fcss%3Ffamily%3DNunito%2BSans;fontStyle=1" vertex="1" parent="1">
          <mxGeometry x="-280" y="-160" width="220" height="241" as="geometry" />
        </mxCell>
        <mxCell id="1Z1Jqu86KwGXHja1XvKO-19" value="" style="rounded=0;whiteSpace=wrap;html=1;fontSize=14;fontFamily=Nunito Sans;fontSource=https%3A%2F%2Ffonts.googleapis.com%2Fcss%3Ffamily%3DNunito%2BSans;fontStyle=1" vertex="1" parent="1">
          <mxGeometry x="-280" y="110" width="220" height="200" as="geometry" />
        </mxCell>
        <mxCell id="1Z1Jqu86KwGXHja1XvKO-25" value="" style="rounded=0;whiteSpace=wrap;html=1;fontSize=16;fontFamily=Nunito Sans;fontSource=https%3A%2F%2Ffonts.googleapis.com%2Fcss%3Ffamily%3DNunito%2BSans;fontStyle=1" vertex="1" parent="1">
          <mxGeometry x="-280" y="350" width="220" height="160" as="geometry" />
        </mxCell>
        <mxCell id="1Z1Jqu86KwGXHja1XvKO-26" value="" style="rounded=0;whiteSpace=wrap;html=1;fontSize=16;fontFamily=Nunito Sans;fontSource=https%3A%2F%2Ffonts.googleapis.com%2Fcss%3Ffamily%3DNunito%2BSans;fontStyle=1" vertex="1" parent="1">
          <mxGeometry x="-280" y="600" width="220" height="80" as="geometry" />
        </mxCell>
        <mxCell id="1Z1Jqu86KwGXHja1XvKO-52" value="Final Baselines training" style="rounded=0;whiteSpace=wrap;html=1;fontSize=14;" vertex="1" parent="1">
          <mxGeometry x="-280" y="-160" width="220" height="30" as="geometry" />
        </mxCell>
        <mxCell id="1Z1Jqu86KwGXHja1XvKO-53" value="Evaluation" style="rounded=0;whiteSpace=wrap;html=1;fontSize=14;" vertex="1" parent="1">
          <mxGeometry x="-280" y="-130" width="220" height="30" as="geometry" />
        </mxCell>
        <mxCell id="1Z1Jqu86KwGXHja1XvKO-54" value="Ablation trainings" style="rounded=0;whiteSpace=wrap;html=1;fontSize=14;" vertex="1" parent="1">
          <mxGeometry x="-280" y="-100" width="220" height="30" as="geometry" />
        </mxCell>
        <mxCell id="1Z1Jqu86KwGXHja1XvKO-55" value="Ablations" style="rounded=0;whiteSpace=wrap;html=1;fontSize=14;" vertex="1" parent="1">
          <mxGeometry x="-280" y="-70" width="220" height="30" as="geometry" />
        </mxCell>
        <mxCell id="1Z1Jqu86KwGXHja1XvKO-56" value="Report Results / write up" style="rounded=0;whiteSpace=wrap;html=1;fontSize=14;" vertex="1" parent="1">
          <mxGeometry x="-280" y="-40" width="220" height="30" as="geometry" />
        </mxCell>
        <mxCell id="1Z1Jqu86KwGXHja1XvKO-57" value="MaCHUP stage 2 : baselines" style="rounded=0;whiteSpace=wrap;html=1;fontSize=14;" vertex="1" parent="1">
          <mxGeometry x="-280" y="-10" width="220" height="30" as="geometry" />
        </mxCell>
        <mxCell id="1Z1Jqu86KwGXHja1XvKO-58" value="MaCHUP stage 2 : Evaluation&amp;nbsp;" style="rounded=0;whiteSpace=wrap;html=1;fontSize=14;" vertex="1" parent="1">
          <mxGeometry x="-280" y="20" width="220" height="30" as="geometry" />
        </mxCell>
        <mxCell id="1Z1Jqu86KwGXHja1XvKO-59" value="Stage 2 : ablations" style="rounded=0;whiteSpace=wrap;html=1;fontSize=14;" vertex="1" parent="1">
          <mxGeometry x="-280" y="50" width="220" height="30" as="geometry" />
        </mxCell>
        <mxCell id="1Z1Jqu86KwGXHja1XvKO-60" value="Stage 2 : writing up" style="rounded=0;whiteSpace=wrap;html=1;fontSize=14;" vertex="1" parent="1">
          <mxGeometry x="-280" y="80" width="220" height="30" as="geometry" />
        </mxCell>
        <mxCell id="1Z1Jqu86KwGXHja1XvKO-61" value="Finish Implementation" style="rounded=0;whiteSpace=wrap;html=1;fontSize=14;" vertex="1" parent="1">
          <mxGeometry x="-280" y="110" width="220" height="20" as="geometry" />
        </mxCell>
        <mxCell id="1Z1Jqu86KwGXHja1XvKO-62" value="Run baseline trainings" style="rounded=0;whiteSpace=wrap;html=1;fontSize=14;" vertex="1" parent="1">
          <mxGeometry x="-280" y="130" width="220" height="20" as="geometry" />
        </mxCell>
        <mxCell id="1Z1Jqu86KwGXHja1XvKO-63" value="Evaluation" style="rounded=0;whiteSpace=wrap;html=1;fontSize=14;" vertex="1" parent="1">
          <mxGeometry x="-280" y="150" width="220" height="20" as="geometry" />
        </mxCell>
        <mxCell id="1Z1Jqu86KwGXHja1XvKO-64" value="Ablations and alterations" style="rounded=0;whiteSpace=wrap;html=1;fontSize=14;" vertex="1" parent="1">
          <mxGeometry x="-280" y="170" width="220" height="20" as="geometry" />
        </mxCell>
        <mxCell id="1Z1Jqu86KwGXHja1XvKO-65" value="Report" style="rounded=0;whiteSpace=wrap;html=1;fontSize=14;" vertex="1" parent="1">
          <mxGeometry x="-280" y="190" width="220" height="20" as="geometry" />
        </mxCell>
        <mxCell id="1Z1Jqu86KwGXHja1XvKO-66" value="Stage 2 : Implementation" style="rounded=0;whiteSpace=wrap;html=1;fontSize=14;" vertex="1" parent="1">
          <mxGeometry x="-280" y="210" width="220" height="20" as="geometry" />
        </mxCell>
        <mxCell id="1Z1Jqu86KwGXHja1XvKO-67" value="Stage 2 : Human-in-the loop evaluation" style="rounded=0;whiteSpace=wrap;html=1;fontSize=14;" vertex="1" parent="1">
          <mxGeometry x="-280" y="230" width="220" height="40" as="geometry" />
        </mxCell>
        <mxCell id="1Z1Jqu86KwGXHja1XvKO-68" value="Stage 2 : Finetune vs few-shot ablations" style="rounded=0;whiteSpace=wrap;html=1;fontSize=14;" vertex="1" parent="1">
          <mxGeometry x="-280" y="270" width="220" height="40" as="geometry" />
        </mxCell>
        <mxCell id="1Z1Jqu86KwGXHja1XvKO-69" value="Stage 2 : report results" style="rounded=0;whiteSpace=wrap;html=1;fontSize=14;" vertex="1" parent="1">
          <mxGeometry x="-280" y="310" width="220" height="40" as="geometry" />
        </mxCell>
        <mxCell id="1Z1Jqu86KwGXHja1XvKO-71" value="HIL source separation" style="rounded=0;whiteSpace=wrap;html=1;fontSize=14;" vertex="1" parent="1">
          <mxGeometry x="-280" y="350" width="220" height="40" as="geometry" />
        </mxCell>
        <mxCell id="1Z1Jqu86KwGXHja1XvKO-72" value="Audio effect dataset generation w/ LLMs" style="rounded=0;whiteSpace=wrap;html=1;fontSize=14;" vertex="1" parent="1">
          <mxGeometry x="-280" y="390" width="220" height="40" as="geometry" />
        </mxCell>
        <mxCell id="1Z1Jqu86KwGXHja1XvKO-73" value="Equivariance applications" style="rounded=0;whiteSpace=wrap;html=1;fontSize=14;" vertex="1" parent="1">
          <mxGeometry x="-280" y="430" width="220" height="40" as="geometry" />
        </mxCell>
        <mxCell id="1Z1Jqu86KwGXHja1XvKO-74" value="Combining Equivariance and Invariance" style="rounded=0;whiteSpace=wrap;html=1;fontSize=14;" vertex="1" parent="1">
          <mxGeometry x="-280" y="470" width="220" height="40" as="geometry" />
        </mxCell>
        <mxCell id="1Z1Jqu86KwGXHja1XvKO-75" value="Evaluation for Text-Music" style="rounded=0;whiteSpace=wrap;html=1;fontSize=14;" vertex="1" parent="1">
          <mxGeometry x="-280" y="510" width="220" height="30" as="geometry" />
        </mxCell>
        <mxCell id="1Z1Jqu86KwGXHja1XvKO-76" value="Perceptual contrastive learning" style="rounded=0;whiteSpace=wrap;html=1;fontSize=14;" vertex="1" parent="1">
          <mxGeometry x="-280" y="540" width="220" height="30" as="geometry" />
        </mxCell>
        <mxCell id="1Z1Jqu86KwGXHja1XvKO-77" value="Equivariance-aware Music-Text" style="rounded=0;whiteSpace=wrap;html=1;fontSize=14;" vertex="1" parent="1">
          <mxGeometry x="-280" y="570" width="220" height="30" as="geometry" />
        </mxCell>
        <mxCell id="1Z1Jqu86KwGXHja1XvKO-78" value="Collecting material" style="rounded=0;whiteSpace=wrap;html=1;fontSize=14;" vertex="1" parent="1">
          <mxGeometry x="-280" y="600" width="220" height="30" as="geometry" />
        </mxCell>
        <mxCell id="1Z1Jqu86KwGXHja1XvKO-79" value="Writing up" style="rounded=0;whiteSpace=wrap;html=1;fontSize=14;" vertex="1" parent="1">
          <mxGeometry x="-280" y="630" width="220" height="30" as="geometry" />
        </mxCell>
        <mxCell id="1Z1Jqu86KwGXHja1XvKO-80" value="Prepare for Viva" style="rounded=0;whiteSpace=wrap;html=1;fontSize=14;" vertex="1" parent="1">
          <mxGeometry x="-280" y="660" width="220" height="30" as="geometry" />
        </mxCell>
        <mxCell id="1Z1Jqu86KwGXHja1XvKO-15" value="" style="endArrow=none;html=1;rounded=0;fontSize=16;startSize=8;endSize=8;curved=1;strokeColor=#FF0000;strokeWidth=2;entryX=0.5;entryY=1;entryDx=0;entryDy=0;fontFamily=Nunito Sans;fontSource=https%3A%2F%2Ffonts.googleapis.com%2Fcss%3Ffamily%3DNunito%2BSans;fontStyle=1" edge="1" parent="1" target="1Z1Jqu86KwGXHja1XvKO-16">
          <mxGeometry width="50" height="50" relative="1" as="geometry">
            <mxPoint x="900" y="689.9999999999999" as="sourcePoint" />
            <mxPoint x="900" y="200.52631578947364" as="targetPoint" />
          </mxGeometry>
        </mxCell>
        <mxCell id="1Z1Jqu86KwGXHja1XvKO-28" value="" style="endArrow=none;dashed=1;html=1;rounded=0;fontSize=16;startSize=8;endSize=8;curved=1;fontFamily=Nunito Sans;fontSource=https%3A%2F%2Ffonts.googleapis.com%2Fcss%3Ffamily%3DNunito%2BSans;fontStyle=1" edge="1" parent="1">
          <mxGeometry width="50" height="50" relative="1" as="geometry">
            <mxPoint x="-60" y="689.9999999999999" as="sourcePoint" />
            <mxPoint x="-60" y="-191.05263157894737" as="targetPoint" />
          </mxGeometry>
        </mxCell>
        <mxCell id="1Z1Jqu86KwGXHja1XvKO-31" value="" style="endArrow=none;dashed=1;html=1;rounded=0;fontSize=16;startSize=8;endSize=8;curved=1;fontFamily=Nunito Sans;fontSource=https%3A%2F%2Ffonts.googleapis.com%2Fcss%3Ffamily%3DNunito%2BSans;fontStyle=1" edge="1" parent="1">
          <mxGeometry width="50" height="50" relative="1" as="geometry">
            <mxPoint x="20" y="689.9999999999999" as="sourcePoint" />
            <mxPoint x="20" y="-191.05263157894737" as="targetPoint" />
          </mxGeometry>
        </mxCell>
        <mxCell id="1Z1Jqu86KwGXHja1XvKO-32" value="" style="endArrow=none;dashed=1;html=1;rounded=0;fontSize=16;startSize=8;endSize=8;curved=1;fontFamily=Nunito Sans;fontSource=https%3A%2F%2Ffonts.googleapis.com%2Fcss%3Ffamily%3DNunito%2BSans;fontStyle=1" edge="1" parent="1">
          <mxGeometry width="50" height="50" relative="1" as="geometry">
            <mxPoint x="100" y="689.9999999999999" as="sourcePoint" />
            <mxPoint x="100" y="-191.05263157894737" as="targetPoint" />
          </mxGeometry>
        </mxCell>
        <mxCell id="1Z1Jqu86KwGXHja1XvKO-33" value="" style="endArrow=none;dashed=1;html=1;rounded=0;fontSize=16;startSize=8;endSize=8;curved=1;fontFamily=Nunito Sans;fontSource=https%3A%2F%2Ffonts.googleapis.com%2Fcss%3Ffamily%3DNunito%2BSans;fontStyle=1" edge="1" parent="1">
          <mxGeometry width="50" height="50" relative="1" as="geometry">
            <mxPoint x="180" y="689.9999999999999" as="sourcePoint" />
            <mxPoint x="180" y="-191.05263157894737" as="targetPoint" />
          </mxGeometry>
        </mxCell>
        <mxCell id="1Z1Jqu86KwGXHja1XvKO-34" value="" style="endArrow=none;dashed=1;html=1;rounded=0;fontSize=16;startSize=8;endSize=8;curved=1;fontFamily=Nunito Sans;fontSource=https%3A%2F%2Ffonts.googleapis.com%2Fcss%3Ffamily%3DNunito%2BSans;fontStyle=1" edge="1" parent="1">
          <mxGeometry width="50" height="50" relative="1" as="geometry">
            <mxPoint x="260" y="689.9999999999999" as="sourcePoint" />
            <mxPoint x="260" y="-191.05263157894737" as="targetPoint" />
          </mxGeometry>
        </mxCell>
        <mxCell id="1Z1Jqu86KwGXHja1XvKO-35" value="" style="endArrow=none;dashed=1;html=1;rounded=0;fontSize=16;startSize=8;endSize=8;curved=1;fontFamily=Nunito Sans;fontSource=https%3A%2F%2Ffonts.googleapis.com%2Fcss%3Ffamily%3DNunito%2BSans;fontStyle=1" edge="1" parent="1">
          <mxGeometry width="50" height="50" relative="1" as="geometry">
            <mxPoint x="340" y="689.9999999999999" as="sourcePoint" />
            <mxPoint x="340" y="-191.05263157894737" as="targetPoint" />
          </mxGeometry>
        </mxCell>
        <mxCell id="1Z1Jqu86KwGXHja1XvKO-36" value="" style="endArrow=none;dashed=1;html=1;rounded=0;fontSize=16;startSize=8;endSize=8;curved=1;fontFamily=Nunito Sans;fontSource=https%3A%2F%2Ffonts.googleapis.com%2Fcss%3Ffamily%3DNunito%2BSans;fontStyle=1" edge="1" parent="1">
          <mxGeometry width="50" height="50" relative="1" as="geometry">
            <mxPoint x="420" y="689.9999999999999" as="sourcePoint" />
            <mxPoint x="420" y="-191.05263157894737" as="targetPoint" />
          </mxGeometry>
        </mxCell>
        <mxCell id="1Z1Jqu86KwGXHja1XvKO-37" value="" style="endArrow=none;dashed=1;html=1;rounded=0;fontSize=16;startSize=8;endSize=8;curved=1;fontFamily=Nunito Sans;fontSource=https%3A%2F%2Ffonts.googleapis.com%2Fcss%3Ffamily%3DNunito%2BSans;fontStyle=1" edge="1" parent="1">
          <mxGeometry width="50" height="50" relative="1" as="geometry">
            <mxPoint x="500" y="689.9999999999999" as="sourcePoint" />
            <mxPoint x="500" y="-191.05263157894737" as="targetPoint" />
          </mxGeometry>
        </mxCell>
        <mxCell id="1Z1Jqu86KwGXHja1XvKO-38" value="" style="endArrow=none;dashed=1;html=1;rounded=0;fontSize=16;startSize=8;endSize=8;curved=1;fontFamily=Nunito Sans;fontSource=https%3A%2F%2Ffonts.googleapis.com%2Fcss%3Ffamily%3DNunito%2BSans;fontStyle=1;strokeWidth=2;" edge="1" parent="1">
          <mxGeometry width="50" height="50" relative="1" as="geometry">
            <mxPoint x="580" y="689.9999999999999" as="sourcePoint" />
            <mxPoint x="580" y="-240" as="targetPoint" />
          </mxGeometry>
        </mxCell>
        <mxCell id="1Z1Jqu86KwGXHja1XvKO-40" value="" style="endArrow=none;dashed=1;html=1;rounded=0;fontSize=16;startSize=8;endSize=8;curved=1;fontFamily=Nunito Sans;fontSource=https%3A%2F%2Ffonts.googleapis.com%2Fcss%3Ffamily%3DNunito%2BSans;fontStyle=1" edge="1" parent="1">
          <mxGeometry width="50" height="50" relative="1" as="geometry">
            <mxPoint x="740" y="689.9999999999999" as="sourcePoint" />
            <mxPoint x="740" y="-191.05263157894737" as="targetPoint" />
          </mxGeometry>
        </mxCell>
        <mxCell id="1Z1Jqu86KwGXHja1XvKO-41" value="" style="endArrow=none;dashed=1;html=1;rounded=0;fontSize=16;startSize=8;endSize=8;curved=1;fontFamily=Nunito Sans;fontSource=https%3A%2F%2Ffonts.googleapis.com%2Fcss%3Ffamily%3DNunito%2BSans;fontStyle=1;entryX=0.5;entryY=1;entryDx=0;entryDy=0;strokeWidth=2;" edge="1" parent="1" target="1Z1Jqu86KwGXHja1XvKO-120">
          <mxGeometry width="50" height="50" relative="1" as="geometry">
            <mxPoint x="820" y="689.9999999999999" as="sourcePoint" />
            <mxPoint x="820" y="-191.05263157894737" as="targetPoint" />
          </mxGeometry>
        </mxCell>
        <mxCell id="1Z1Jqu86KwGXHja1XvKO-44" value="" style="endArrow=none;dashed=1;html=1;rounded=0;fontSize=16;startSize=8;endSize=8;curved=1;fontFamily=Nunito Sans;fontSource=https%3A%2F%2Ffonts.googleapis.com%2Fcss%3Ffamily%3DNunito%2BSans;fontStyle=1;strokeWidth=2;" edge="1" parent="1">
          <mxGeometry width="50" height="50" relative="1" as="geometry">
            <mxPoint x="220" y="689.9999999999999" as="sourcePoint" />
            <mxPoint x="220" y="-240" as="targetPoint" />
          </mxGeometry>
        </mxCell>
        <mxCell id="1Z1Jqu86KwGXHja1XvKO-46" value="" style="endArrow=none;dashed=1;html=1;rounded=0;fontSize=16;startSize=8;endSize=8;curved=1;fontFamily=Nunito Sans;fontSource=https%3A%2F%2Ffonts.googleapis.com%2Fcss%3Ffamily%3DNunito%2BSans;fontStyle=1;strokeWidth=2;" edge="1" parent="1">
          <mxGeometry width="50" height="50" relative="1" as="geometry">
            <mxPoint x="540" y="-215.5263157894737" as="sourcePoint" />
            <mxPoint x="540" y="-215.5263157894737" as="targetPoint" />
          </mxGeometry>
        </mxCell>
        <mxCell id="1Z1Jqu86KwGXHja1XvKO-49" value="" style="endArrow=none;dashed=1;html=1;rounded=0;fontSize=16;startSize=8;endSize=8;curved=1;fontFamily=Nunito Sans;fontSource=https%3A%2F%2Ffonts.googleapis.com%2Fcss%3Ffamily%3DNunito%2BSans;fontStyle=1;strokeWidth=2;" edge="1" parent="1">
          <mxGeometry width="50" height="50" relative="1" as="geometry">
            <mxPoint x="660" y="689.9999999999999" as="sourcePoint" />
            <mxPoint x="660" y="-240" as="targetPoint" />
          </mxGeometry>
        </mxCell>
        <mxCell id="1Z1Jqu86KwGXHja1XvKO-51" value="" style="endArrow=none;dashed=1;html=1;rounded=0;fontSize=16;startSize=8;endSize=8;curved=1;fontFamily=Nunito Sans;fontSource=https%3A%2F%2Ffonts.googleapis.com%2Fcss%3Ffamily%3DNunito%2BSans;fontStyle=1;strokeWidth=2;" edge="1" parent="1">
          <mxGeometry width="50" height="50" relative="1" as="geometry">
            <mxPoint x="390" y="689.9999999999999" as="sourcePoint" />
            <mxPoint x="390" y="-240" as="targetPoint" />
          </mxGeometry>
        </mxCell>
        <mxCell id="1Z1Jqu86KwGXHja1XvKO-43" value="ICASSP" style="rounded=1;whiteSpace=wrap;html=1;fontSize=16;fillColor=#ffff88;strokeColor=#36393d;fontStyle=1;arcSize=45;fontFamily=Nunito Sans;fontSource=https%3A%2F%2Ffonts.googleapis.com%2Fcss%3Ffamily%3DNunito%2BSans;strokeWidth=2;" vertex="1" parent="1">
          <mxGeometry x="520" y="-260" width="120" height="40" as="geometry" />
        </mxCell>
        <mxCell id="1Z1Jqu86KwGXHja1XvKO-45" value="ISMIR" style="rounded=1;whiteSpace=wrap;html=1;fontSize=16;fillColor=#ffff88;strokeColor=#36393d;fontStyle=1;arcSize=45;fontFamily=Nunito Sans;fontSource=https%3A%2F%2Ffonts.googleapis.com%2Fcss%3Ffamily%3DNunito%2BSans;strokeWidth=2;" vertex="1" parent="1">
          <mxGeometry x="160" y="-260" width="120" height="40" as="geometry" />
        </mxCell>
        <mxCell id="1Z1Jqu86KwGXHja1XvKO-47" value="ICLR" style="rounded=1;whiteSpace=wrap;html=1;fontSize=16;fillColor=#ffff88;strokeColor=#36393d;fontStyle=1;arcSize=45;fontFamily=Nunito Sans;fontSource=https%3A%2F%2Ffonts.googleapis.com%2Fcss%3Ffamily%3DNunito%2BSans;strokeWidth=2;" vertex="1" parent="1">
          <mxGeometry x="600" y="-280" width="120" height="40" as="geometry" />
        </mxCell>
        <mxCell id="1Z1Jqu86KwGXHja1XvKO-50" value="NeurIPS" style="rounded=1;whiteSpace=wrap;html=1;fontSize=16;fillColor=#ffff88;strokeColor=#36393d;fontStyle=1;arcSize=45;fontFamily=Nunito Sans;fontSource=https%3A%2F%2Ffonts.googleapis.com%2Fcss%3Ffamily%3DNunito%2BSans;strokeWidth=2;" vertex="1" parent="1">
          <mxGeometry x="330" y="-260" width="120" height="40" as="geometry" />
        </mxCell>
        <mxCell id="1Z1Jqu86KwGXHja1XvKO-82" value="" style="rounded=0;whiteSpace=wrap;html=1;fontSize=16;fillColor=#cdeb8b;strokeColor=#36393d;" vertex="1" parent="1">
          <mxGeometry x="-60" y="-155" width="40" height="20" as="geometry" />
        </mxCell>
        <mxCell id="1Z1Jqu86KwGXHja1XvKO-83" value="" style="rounded=0;whiteSpace=wrap;html=1;fontSize=16;fillColor=#cdeb8b;strokeColor=#36393d;" vertex="1" parent="1">
          <mxGeometry x="-60" y="-125" width="110" height="20" as="geometry" />
        </mxCell>
        <mxCell id="1Z1Jqu86KwGXHja1XvKO-84" value="" style="rounded=0;whiteSpace=wrap;html=1;fontSize=16;fillColor=#cdeb8b;strokeColor=#36393d;" vertex="1" parent="1">
          <mxGeometry x="-60" y="-95" width="160" height="20" as="geometry" />
        </mxCell>
        <mxCell id="1Z1Jqu86KwGXHja1XvKO-85" value="" style="rounded=0;whiteSpace=wrap;html=1;fontSize=16;fillColor=#cdeb8b;strokeColor=#36393d;" vertex="1" parent="1">
          <mxGeometry x="-60" y="-65" width="200" height="20" as="geometry" />
        </mxCell>
        <mxCell id="1Z1Jqu86KwGXHja1XvKO-86" value="" style="rounded=0;whiteSpace=wrap;html=1;fontSize=16;fillColor=#cdeb8b;strokeColor=#36393d;" vertex="1" parent="1">
          <mxGeometry x="40" y="-35" width="180" height="20" as="geometry" />
        </mxCell>
        <mxCell id="1Z1Jqu86KwGXHja1XvKO-87" value="" style="rounded=0;whiteSpace=wrap;html=1;fontSize=16;fillColor=#cdeb8b;strokeColor=#36393d;" vertex="1" parent="1">
          <mxGeometry x="220" y="-5" width="120" height="20" as="geometry" />
        </mxCell>
        <mxCell id="1Z1Jqu86KwGXHja1XvKO-88" value="" style="rounded=0;whiteSpace=wrap;html=1;fontSize=16;fillColor=#cdeb8b;strokeColor=#36393d;" vertex="1" parent="1">
          <mxGeometry x="340" y="25" width="110" height="20" as="geometry" />
        </mxCell>
        <mxCell id="1Z1Jqu86KwGXHja1XvKO-89" value="" style="rounded=0;whiteSpace=wrap;html=1;fontSize=16;fillColor=#cdeb8b;strokeColor=#36393d;" vertex="1" parent="1">
          <mxGeometry x="290" y="55" width="190" height="20" as="geometry" />
        </mxCell>
        <mxCell id="1Z1Jqu86KwGXHja1XvKO-90" value="" style="rounded=0;whiteSpace=wrap;html=1;fontSize=16;fillColor=#cdeb8b;strokeColor=#36393d;" vertex="1" parent="1">
          <mxGeometry x="390" y="85" width="190" height="20" as="geometry" />
        </mxCell>
        <mxCell id="1Z1Jqu86KwGXHja1XvKO-94" value="" style="rounded=0;whiteSpace=wrap;html=1;fontSize=16;fillColor=#ffff88;strokeColor=#36393d;" vertex="1" parent="1">
          <mxGeometry x="-60" y="110" width="120" height="20" as="geometry" />
        </mxCell>
        <mxCell id="1Z1Jqu86KwGXHja1XvKO-95" value="" style="rounded=0;whiteSpace=wrap;html=1;fontSize=16;fillColor=#ffff88;strokeColor=#36393d;" vertex="1" parent="1">
          <mxGeometry x="20" y="130" width="120" height="20" as="geometry" />
        </mxCell>
        <mxCell id="1Z1Jqu86KwGXHja1XvKO-96" value="" style="rounded=0;whiteSpace=wrap;html=1;fontSize=16;fillColor=#ffff88;strokeColor=#36393d;" vertex="1" parent="1">
          <mxGeometry x="60" y="150" width="120" height="20" as="geometry" />
        </mxCell>
        <mxCell id="1Z1Jqu86KwGXHja1XvKO-97" value="" style="rounded=0;whiteSpace=wrap;html=1;fontSize=16;fillColor=#ffff88;strokeColor=#36393d;" vertex="1" parent="1">
          <mxGeometry x="100" y="170" width="80" height="20" as="geometry" />
        </mxCell>
        <mxCell id="1Z1Jqu86KwGXHja1XvKO-98" value="" style="rounded=0;whiteSpace=wrap;html=1;fontSize=16;fillColor=#ffff88;strokeColor=#36393d;" vertex="1" parent="1">
          <mxGeometry x="100" y="190" width="120" height="20" as="geometry" />
        </mxCell>
        <mxCell id="1Z1Jqu86KwGXHja1XvKO-99" value="" style="rounded=0;whiteSpace=wrap;html=1;fontSize=16;fillColor=#ffff88;strokeColor=#36393d;" vertex="1" parent="1">
          <mxGeometry x="220" y="210" width="170" height="20" as="geometry" />
        </mxCell>
        <mxCell id="1Z1Jqu86KwGXHja1XvKO-100" value="" style="rounded=0;whiteSpace=wrap;html=1;fontSize=16;fillColor=#ffff88;strokeColor=#36393d;" vertex="1" parent="1">
          <mxGeometry x="340" y="240" width="170" height="20" as="geometry" />
        </mxCell>
        <mxCell id="1Z1Jqu86KwGXHja1XvKO-101" value="" style="rounded=0;whiteSpace=wrap;html=1;fontSize=16;fillColor=#ffff88;strokeColor=#36393d;" vertex="1" parent="1">
          <mxGeometry x="390" y="280" width="170" height="20" as="geometry" />
        </mxCell>
        <mxCell id="1Z1Jqu86KwGXHja1XvKO-102" value="" style="rounded=0;whiteSpace=wrap;html=1;fontSize=16;fillColor=#ffff88;strokeColor=#36393d;" vertex="1" parent="1">
          <mxGeometry x="490" y="320" width="170" height="20" as="geometry" />
        </mxCell>
        <mxCell id="1Z1Jqu86KwGXHja1XvKO-103" value="" style="rounded=0;whiteSpace=wrap;html=1;fontSize=16;fillColor=#ffff88;strokeColor=#36393d;" vertex="1" parent="1">
          <mxGeometry x="50" y="210" width="170" height="20" as="geometry" />
        </mxCell>
        <mxCell id="1Z1Jqu86KwGXHja1XvKO-104" value="" style="rounded=0;whiteSpace=wrap;html=1;fontSize=16;fillColor=#ffff88;strokeColor=#36393d;opacity=40;" vertex="1" parent="1">
          <mxGeometry x="100" y="240" width="120" height="20" as="geometry" />
        </mxCell>
        <mxCell id="1Z1Jqu86KwGXHja1XvKO-105" value="" style="rounded=0;whiteSpace=wrap;html=1;fontSize=16;fillColor=#ffff88;strokeColor=#36393d;opacity=40;" vertex="1" parent="1">
          <mxGeometry x="130" y="280" width="90" height="20" as="geometry" />
        </mxCell>
        <mxCell id="1Z1Jqu86KwGXHja1XvKO-106" value="" style="rounded=0;whiteSpace=wrap;html=1;fontSize=16;fillColor=#ffff88;strokeColor=#36393d;opacity=40;" vertex="1" parent="1">
          <mxGeometry x="180" y="320" width="40" height="20" as="geometry" />
        </mxCell>
        <mxCell id="1Z1Jqu86KwGXHja1XvKO-109" value="" style="rounded=0;whiteSpace=wrap;html=1;fontSize=16;fillColor=#ffcccc;strokeColor=#36393d;opacity=50;" vertex="1" parent="1">
          <mxGeometry x="390" y="360" width="270" height="20" as="geometry" />
        </mxCell>
        <mxCell id="1Z1Jqu86KwGXHja1XvKO-110" value="" style="rounded=0;whiteSpace=wrap;html=1;fontSize=16;fillColor=#ffcccc;strokeColor=#36393d;" vertex="1" parent="1">
          <mxGeometry x="660" y="360" width="240" height="20" as="geometry" />
        </mxCell>
        <mxCell id="1Z1Jqu86KwGXHja1XvKO-111" value="" style="rounded=0;whiteSpace=wrap;html=1;fontSize=16;fillColor=#ffcccc;strokeColor=#36393d;opacity=50;" vertex="1" parent="1">
          <mxGeometry x="220" y="400" width="280" height="20" as="geometry" />
        </mxCell>
        <mxCell id="1Z1Jqu86KwGXHja1XvKO-112" value="" style="rounded=0;whiteSpace=wrap;html=1;fontSize=16;fillColor=#ffcccc;strokeColor=#36393d;" vertex="1" parent="1">
          <mxGeometry x="500" y="400" width="400" height="20" as="geometry" />
        </mxCell>
        <mxCell id="1Z1Jqu86KwGXHja1XvKO-113" value="" style="rounded=0;whiteSpace=wrap;html=1;fontSize=16;fillColor=#ffcccc;strokeColor=#36393d;opacity=60;" vertex="1" parent="1">
          <mxGeometry x="220" y="440" width="170" height="20" as="geometry" />
        </mxCell>
        <mxCell id="1Z1Jqu86KwGXHja1XvKO-114" value="" style="rounded=0;whiteSpace=wrap;html=1;fontSize=16;fillColor=#ffcccc;strokeColor=#36393d;" vertex="1" parent="1">
          <mxGeometry x="390" y="440" width="510" height="20" as="geometry" />
        </mxCell>
        <mxCell id="1Z1Jqu86KwGXHja1XvKO-115" value="" style="rounded=0;whiteSpace=wrap;html=1;fontSize=16;fillColor=#ffcccc;strokeColor=#36393d;opacity=50;" vertex="1" parent="1">
          <mxGeometry x="220" y="480" width="170" height="20" as="geometry" />
        </mxCell>
        <mxCell id="1Z1Jqu86KwGXHja1XvKO-117" value="" style="rounded=0;whiteSpace=wrap;html=1;fontSize=16;fillColor=#ffcccc;strokeColor=#36393d;" vertex="1" parent="1">
          <mxGeometry x="390" y="480" width="510" height="20" as="geometry" />
        </mxCell>
        <mxCell id="1Z1Jqu86KwGXHja1XvKO-118" value="" style="rounded=0;whiteSpace=wrap;html=1;fontSize=16;fillColor=#ffcccc;strokeColor=#36393d;opacity=50;" vertex="1" parent="1">
          <mxGeometry x="500" y="515" width="400" height="20" as="geometry" />
        </mxCell>
        <mxCell id="1Z1Jqu86KwGXHja1XvKO-120" value="ICASSP workshops" style="rounded=1;whiteSpace=wrap;html=1;fontSize=16;fillColor=#ffff88;strokeColor=#36393d;fontStyle=1;arcSize=45;fontFamily=Nunito Sans;fontSource=https%3A%2F%2Ffonts.googleapis.com%2Fcss%3Ffamily%3DNunito%2BSans;strokeWidth=2;" vertex="1" parent="1">
          <mxGeometry x="760" y="-340" width="120" height="50" as="geometry" />
        </mxCell>
        <mxCell id="1Z1Jqu86KwGXHja1XvKO-121" value="ISMIR tutorial" style="rounded=1;whiteSpace=wrap;html=1;fontSize=16;fillColor=#ffff88;strokeColor=#36393d;fontStyle=1;arcSize=45;fontFamily=Nunito Sans;fontSource=https%3A%2F%2Ffonts.googleapis.com%2Fcss%3Ffamily%3DNunito%2BSans;strokeWidth=2;" vertex="1" parent="1">
          <mxGeometry x="140" y="-290" width="120" height="40" as="geometry" />
        </mxCell>
        <mxCell id="1Z1Jqu86KwGXHja1XvKO-122" value="" style="rounded=0;whiteSpace=wrap;html=1;fontSize=16;fillColor=#ffcccc;strokeColor=#36393d;opacity=50;" vertex="1" parent="1">
          <mxGeometry x="580" y="545" width="240" height="20" as="geometry" />
        </mxCell>
        <mxCell id="1Z1Jqu86KwGXHja1XvKO-125" value="" style="rounded=0;whiteSpace=wrap;html=1;fontSize=16;fillColor=#ffcccc;strokeColor=#36393d;" vertex="1" parent="1">
          <mxGeometry x="820" y="545" width="80" height="20" as="geometry" />
        </mxCell>
        <mxCell id="1Z1Jqu86KwGXHja1XvKO-126" value="" style="rounded=0;whiteSpace=wrap;html=1;fontSize=16;fillColor=#ffcccc;strokeColor=#36393d;opacity=50;" vertex="1" parent="1">
          <mxGeometry x="660" y="575" width="240" height="20" as="geometry" />
        </mxCell>
        <mxCell id="1Z1Jqu86KwGXHja1XvKO-127" value="" style="rounded=0;whiteSpace=wrap;html=1;fontSize=16;fillColor=#cce5ff;strokeColor=#36393d;" vertex="1" parent="1">
          <mxGeometry x="-60" y="605" width="880" height="20" as="geometry" />
        </mxCell>
        <mxCell id="1Z1Jqu86KwGXHja1XvKO-129" value="" style="rounded=0;whiteSpace=wrap;html=1;fontSize=16;fillColor=#cce5ff;strokeColor=#36393d;" vertex="1" parent="1">
          <mxGeometry x="660" y="635" width="180" height="20" as="geometry" />
        </mxCell>
        <mxCell id="1Z1Jqu86KwGXHja1XvKO-130" value="" style="rounded=0;whiteSpace=wrap;html=1;fontSize=16;fillColor=#cce5ff;strokeColor=#36393d;" vertex="1" parent="1">
          <mxGeometry x="820" y="665" width="80" height="20" as="geometry" />
        </mxCell>
        <mxCell id="1Z1Jqu86KwGXHja1XvKO-132" value="" style="rounded=1;whiteSpace=wrap;html=1;fontSize=16;arcSize=6;fillColor=#cce5ff;strokeColor=none;opacity=20;" vertex="1" parent="1">
          <mxGeometry x="-60" y="600" width="960" height="90" as="geometry" />
        </mxCell>
      </root>
    </mxGraphModel>
  </diagram>
</mxfile>
